<svg width="1211" height="231" viewBox="0 0 1211 231" fill="none" xmlns="http://www.w3.org/2000/svg">
<g clip-path="url(#clip0_7_20)">
<path d="M754.39 79.78H784.87L739.96 206.2L711.88 206.33L683.15 124.54L654.51 206.17L626.41 206.38L581.74 79.85L612.14 79.86L640.77 166.11L652.31 133.38L670.22 79.76L696.49 79.67L725.42 166.01L754.39 79.78Z" fill="black"/>
<path d="M102.79 53.92L49.83 105.03C37.74 116.7 17.16 121.25 0.330007 119.93C-1.51999 105.4 4.44001 92.88 14.72 82.91L85.12 14.57C106.49 -6.18001 139.47 -4.06001 160.32 16.47L228.32 83.46C210.59 91.69 187.97 89.99 173.93 76.58L149.92 53.65C137.31 41.61 116.02 41.16 102.79 53.92Z" fill="black"/>
<path d="M13.89 146.89C34.23 140.5 55.27 140.47 71.26 156.22L92.01 176.66C104.57 189.03 125.93 190.11 139.81 177.83C155.35 164.08 169.5 149.43 184.2 134.59C206.43 112.14 214.21 117.52 241.18 105.19C244.94 119.71 240.97 135.07 230.24 145.7L162.09 213.18C139.69 235.36 106.24 237.06 83.46 214.81L13.89 146.89Z" fill="black"/>
<path d="M511.41 208.93C474.8 206.51 448.19 176.39 449.36 140.99C450.53 105.48 478.86 77.46 515.14 77.06C553.21 76.63 583.17 107.29 582.34 144.8C581.53 181.79 549.88 211.48 511.41 208.94V208.93ZM552.19 132.52C545.99 110 521.01 99.32 499.93 108.62C484.4 115.46 476.1 131.8 478.3 148.54C480.31 163.85 491.92 177.36 508.09 180.31C521.61 182.78 534.58 178.67 543.44 169.22C552.42 159.65 555.98 146.26 552.2 132.52H552.19Z" fill="black"/>
<path d="M1068.07 205.32C1056.17 206.91 1046.28 206.17 1035.07 206.33L1004.87 163.79L974.98 205.97C964.39 206.39 954.12 206.6 941.58 205.73L987.35 141.77L943.34 80.11L976.89 79.97L1005.14 120.72L1033.25 79.87L1066.81 80.12L1022.8 141.83L1068.06 205.32H1068.07Z" fill="black"/>
<path d="M344.55 107.12L344.53 206.18L315.79 206.32L315.75 107.26L295.8 106.95L295.78 79.46H315.66C315.69 70.38 316.52 61.33 320.24 52.83C331.18 27.87 357.9 21.71 382.43 27.15L382.38 54.48C370.61 52.87 354.45 50.37 347.64 61.77C344.4 67.2 344.07 73.36 344.87 79.44H382.38L382.41 107.02L344.55 107.13V107.12Z" fill="black"/>
<path d="M879.45 179.75L879.49 206.58C867.89 208.51 857.62 208.32 846.69 206.1C828.71 202.43 814.96 188.38 814.83 169.32L814.42 107.19L793.82 107L793.7 79.61L814.25 79.34L814.49 51.53L843.39 48.49L843.69 79.44H879.43L879.48 106.95L843.66 107.12L843.72 165.36C843.74 182.76 865.99 181.29 879.45 179.75Z" fill="black"/>
<path d="M430.53 206.09L401.99 206.2L401.98 26.61L430.5 26.57L430.53 206.09Z" fill="black"/>
<path d="M1174.6 206.06L1160.89 206.19L1160.28 193.96C1148.59 207.47 1131.29 211.09 1115.37 203.96C1098.82 196.55 1089.12 179.24 1090.88 161.15C1092.53 144.13 1104.57 128.67 1121.9 124.2C1136.41 120.46 1150.59 124.56 1160.35 136.59L1160.72 124.54L1174.56 124.49L1174.6 206.06ZM1159.83 157.27C1156 144.03 1144.59 136.35 1131.64 136.95C1118.69 137.55 1108.73 146.61 1106.14 159.48C1103.8 171.09 1108.08 182.91 1118.18 189.33C1128.37 195.81 1141.24 194.8 1150.44 187.44C1159 180.59 1163.18 168.87 1159.83 157.28V157.27Z" fill="black"/>
<path d="M926.3 104.02L926.37 206.17L898.03 206.3V79.94L926.28 79.63L926.3 104.02Z" fill="black"/>
<path d="M1208.04 206.37L1193.26 205.97L1193.3 124.47L1208.11 124.51L1208.04 206.37Z" fill="black"/>
<path d="M908.11 29.8C918.48 27.05 928.06 33.76 930.22 43.64C932.2 52.74 926.37 62.2 916.91 64.71C907.45 67.22 897.64 61.54 895.09 52.01C892.54 42.48 897.68 32.57 908.12 29.8H908.11Z" fill="black"/>
<path d="M1197.04 92.09C1202.9 89.91 1208.17 93.64 1209.62 98.39C1211.21 103.61 1208.6 108.98 1203.86 110.73C1198.76 112.61 1193.12 109.91 1191.39 105.55C1189.31 100.32 1191.34 94.22 1197.04 92.09Z" fill="black"/>
</g>
<defs>
<clipPath id="clip0_7_20">
<rect width="1210.09" height="230.69" fill="white"/>
</clipPath>
</defs>
</svg>
