<svg width="32" height="32" viewBox="-3 -5 246 240" xmlns="http://www.w3.org/2000/svg">
  <rect x="-3" y="-5" width="246" height="240" fill="#000000"/>
  <path d="M102.79 53.92L49.83 105.03C37.74 116.7 17.16 121.25 0.330007 119.93C-1.51999 105.4 4.44001 92.88 14.72 82.91L85.12 14.57C106.49 -6.18001 139.47 -4.06001 160.32 16.47L228.32 83.46C210.59 91.69 187.97 89.99 173.93 76.58L149.92 53.65C137.31 41.61 116.02 41.16 102.79 53.92Z" fill="#ffffff"/>
  <path d="M13.89 146.89C34.23 140.5 55.27 140.47 71.26 156.22L92.01 176.66C104.57 189.03 125.93 190.11 139.81 177.83C155.35 164.08 169.5 149.43 184.2 134.59C206.43 112.14 214.21 117.52 241.18 105.19C244.94 119.71 240.97 135.07 230.24 145.7L162.09 213.18C139.69 235.36 106.24 237.06 83.46 214.81L13.89 146.89Z" fill="#ffffff"/>
</svg>
